<svg xmlns="http://www.w3.org/2000/svg" viewBox="0 0 750 750"><defs><style>.cls-1{fill:#f9f904;}.cls-2{fill:#ff8b9f;}.cls-3{fill:#51aef6;}.cls-4{fill:none;}</style></defs><g id="Layer_2" data-name="Layer 2"><g id="Layer_1-2" data-name="Layer 1"><path class="cls-1" d="M207.07,594.58a6.42,6.42,0,0,1-.24,2.65,8.25,8.25,0,0,1-1.16,2.53,10.64,10.64,0,0,1-1.08,1.35,13.73,13.73,0,0,1-1.52,1.32,6.14,6.14,0,0,1,2,.08,5,5,0,0,1,1.43.54,3.79,3.79,0,0,1,1,.8,4.65,4.65,0,0,1,.61.84,5.05,5.05,0,0,1,.32.72c.06.21.1.33.11.38a3.72,3.72,0,0,1,0,1.79,4.37,4.37,0,0,1-.69,1.48,5.53,5.53,0,0,1-1.13,1.19,9.32,9.32,0,0,1-1.35.9,10,10,0,0,1-1.35.62,7.46,7.46,0,0,1-1.1.33l-.5.09c-.26,0-.6.09-1,.14s-.93.08-1.52.11-1.24,0-2,0c-1.95-8.79-2.92-13.19-4.87-22a8.43,8.43,0,0,1,1.32-.76c.49-.22,1-.42,1.45-.58s.92-.3,1.35-.41l1.05-.25a9.78,9.78,0,0,1,2.93-.21,6.19,6.19,0,0,1,2.62.81,6.41,6.41,0,0,1,2.08,2A8.79,8.79,0,0,1,207.07,594.58Zm-3.3.11a6.14,6.14,0,0,0-1.12-2.44,6.43,6.43,0,0,0-.76-.82,3.56,3.56,0,0,0-1-.65,4.57,4.57,0,0,0-1.32-.33,5.1,5.1,0,0,0-1.62.11c-.25.06-.51.12-.77.2a6.8,6.8,0,0,0-.84.32c1.1,5,1.64,7.54,2.74,12.57a8.15,8.15,0,0,0,1.9-1.16,8.66,8.66,0,0,0,1.34-1.38,6.77,6.77,0,0,0,.86-1.48,7.85,7.85,0,0,0,.48-1.47A8.63,8.63,0,0,0,203.77,594.69Zm-2.56,9.59a8.33,8.33,0,0,0-.92.24c-.31.09-.64.21-1,.33.49,2.27.74,3.41,1.24,5.68l1-.06a7.25,7.25,0,0,0,1-.16,6.4,6.4,0,0,0,1.42-.47,3.23,3.23,0,0,0,1.13-.82,2.81,2.81,0,0,0,.65-1.23,3.67,3.67,0,0,0,0-1.71,2.52,2.52,0,0,0-.79-1.22,2.93,2.93,0,0,0-.58-.39,3.12,3.12,0,0,0-.8-.28,5,5,0,0,0-1.07-.08A7.11,7.11,0,0,0,201.21,604.28Z"/><path class="cls-1" d="M220.15,584.75c.17.87.25,1.31.41,2.18-3.62.68-5.43,1-9.05,1.75.78,3.87,1.16,5.81,1.93,9.68,2.83-.57,4.24-.84,7.07-1.38l.45,2.35c-2.86.54-4.29.82-7.15,1.39l1.15,5.74c3.43-.68,5.15-1,8.58-1.66.19,1,.29,1.5.48,2.51-4.52.85-6.78,1.29-11.29,2.21-1.83-9-2.73-13.45-4.55-22.42C213,586.12,215.36,585.66,220.15,584.75Z"/><path class="cls-1" d="M234.4,605.74c-1.64-2.89-2.46-4.34-4.12-7.23a13.59,13.59,0,0,1-1.56.38l-.39.07a2.71,2.71,0,0,1-.41,0c.16,1.28.34,2.54.53,3.79s.38,2.52.58,3.78l-2.42.45q-.51-3.33-1.05-6.62t-1.15-6.64c-.3-1.61-.61-3.2-.94-4.78s-.67-3.17-1-4.77a11.13,11.13,0,0,1,1.58-.8,17.17,17.17,0,0,1,1.65-.58c.53-.17,1-.3,1.49-.4l1.12-.22a10.63,10.63,0,0,1,3.07-.12,6.36,6.36,0,0,1,2.71.94,6.56,6.56,0,0,1,2.1,2.18,9.31,9.31,0,0,1,1.25,3.62,7.22,7.22,0,0,1-.18,2.79,8.52,8.52,0,0,1-1.09,2.44,10.39,10.39,0,0,1-1.74,2,13.37,13.37,0,0,1-2.16,1.55c.84,1.24,1.71,2.46,2.64,3.65s1.88,2.39,2.9,3.59Zm-8.18-20.84c.2,2.06.43,4.12.67,6.15s.5,4.08.76,6.11h0a8.71,8.71,0,0,0,2.95-1,7.21,7.21,0,0,0,1.87-1.56,6,6,0,0,0,1-1.78,8,8,0,0,0,.4-1.69,5.84,5.84,0,0,0,.06-1.27c0-.34,0-.51,0-.54s-.07-.33-.15-.66a7.34,7.34,0,0,0-.38-1.11,8.36,8.36,0,0,0-.68-1.27,4.63,4.63,0,0,0-1.08-1.13,4.47,4.47,0,0,0-1.54-.72,4.66,4.66,0,0,0-2.08,0A8.9,8.9,0,0,0,226.22,584.9Z"/><path class="cls-1" d="M257.06,601.64l-1.39.21c-1.63-6.9-2.45-10.34-4.1-17.24-.14,6.52-.2,9.78-.29,16.29l-3.09.49c-1.92-6-2.89-9.07-4.85-15.11.25,6.89.39,10.33.68,17.22l-2.65.27c-.68-9.18-1-13.77-1.64-22.95l4.67-.76c1.92,6.39,2.87,9.59,4.76,16-.08-6.7-.11-10-.15-16.76,1.85-.29,2.78-.43,4.63-.7C255,587.81,255.69,592.42,257.06,601.64Z"/><path class="cls-1" d="M270.1,600.27c-.54-1.67-.81-2.51-1.36-4.19l-1.55.16c-.52.06-1,.12-1.55.2l-1.68.24-1.68.29c0,.74-.07,1.48-.1,2.2l-.06,2.17-3,.46q.3-2.92.51-5.91t.39-5.95c.12-2,.23-4,.35-6s.23-4,.36-5.91c1.72-.28,2.57-.41,4.29-.67q2,5.63,4.05,11.28t4.31,11.17Zm-6.73-19.67q-.33,3.49-.57,7t-.42,7c.48,0,.95-.11,1.42-.18l1.43-.22,1.38-.17c.44,0,.9-.11,1.35-.2q-1.11-3.36-2.25-6.66C265,585,264.17,582.79,263.37,580.6Z"/><path class="cls-1" d="M281.2,598.39c-2.85.34-4.27.51-7.11.88-.11-1-.17-1.51-.28-2.51l1-.08,1-.12c-.21-2.15-.44-4.31-.68-6.46s-.5-4.33-.77-6.51l-.32-2.56q-.17-1.29-.36-2.58l-2.07.55c-.21-1.15-.32-1.72-.53-2.87.67-.06,1.33-.13,2-.22l2-.24,2-.24q1-.12,1.95-.27c.09.85.13,1.27.22,2.11l-1.12.21-1.11.22q.19,4.68.47,9.3c.18,3.08.38,6.17.62,9.28.48-.06.94-.12,1.39-.21s.9-.17,1.36-.28C281,596.83,281.07,597.35,281.2,598.39Z"/><path class="cls-1" d="M295,573.93c-.08,3.88,0,7.74.1,11.57s.36,7.7.68,11.58l-2.58.27c-3.11-6.16-4.69-9.24-7.88-15.37q.49,8,1.34,16l-2.61.33c-.11-1.14-.23-2.27-.36-3.41s-.26-2.28-.39-3.44q-.93-8-2.09-15.89l3.72-.36c3.15,6.65,4.7,10,7.76,16.65-.05-.86-.11-1.81-.18-2.83s-.15-2.1-.24-3.22-.19-2.26-.29-3.43-.22-2.33-.34-3.46c-.08-.81-.17-1.6-.26-2.38s-.19-1.53-.29-2.27Z"/><path class="cls-2" d="M312.07,584.42a2.33,2.33,0,0,1-.12,1,2.49,2.49,0,0,1-.47.84,2.65,2.65,0,0,1-.76.61,2.49,2.49,0,0,1-1,.29,2.65,2.65,0,0,1-1-.12,2.69,2.69,0,0,1-.86-.48,2.82,2.82,0,0,1-.62-.75,2.39,2.39,0,0,1-.29-.95,2.35,2.35,0,0,1,.13-1,2.75,2.75,0,0,1,.48-.85,2.6,2.6,0,0,1,.77-.62,2.52,2.52,0,0,1,1-.28,2.37,2.37,0,0,1,1,.12,2.69,2.69,0,0,1,.86.48,2.65,2.65,0,0,1,.61.76A2.42,2.42,0,0,1,312.07,584.42Z"/><path class="cls-3" d="M336.24,578a6.51,6.51,0,0,1-.63,2.57,7.08,7.08,0,0,1-.61,1.14,8,8,0,0,1-.91,1.19,10.24,10.24,0,0,1-1.26,1.17,11.72,11.72,0,0,1-1.69,1.08,6,6,0,0,1,1.9.37,5.09,5.09,0,0,1,1.33.75,4.33,4.33,0,0,1,.85.94,5.08,5.08,0,0,1,.47.93,4.11,4.11,0,0,1,.2.76,2.48,2.48,0,0,1,.05.38,3.72,3.72,0,0,1-.28,1.77,4.36,4.36,0,0,1-.9,1.36,5.76,5.76,0,0,1-1.29,1,10.72,10.72,0,0,1-1.47.68,9.56,9.56,0,0,1-1.41.41,7.39,7.39,0,0,1-1.13.16l-.51,0c-.26,0-.6,0-1,0s-.93-.06-1.51-.11-1.22-.14-1.93-.25c-.6-9-.9-13.49-1.51-22.48a7.76,7.76,0,0,1,1.42-.55,14.34,14.34,0,0,1,1.51-.36c.49-.09,1-.16,1.39-.2s.79-.08,1.07-.09a10,10,0,0,1,2.91.24,6,6,0,0,1,4.19,3.53A8.78,8.78,0,0,1,336.24,578Zm-3.26-.4a6.13,6.13,0,0,0-.73-2.58,8.47,8.47,0,0,0-.63-.93,3.68,3.68,0,0,0-.91-.79,4.22,4.22,0,0,0-1.24-.53,5.16,5.16,0,0,0-1.61-.13c-.26,0-.52,0-.79.08a6.55,6.55,0,0,0-.87.19c.32,5.13.49,7.7.81,12.84a8.54,8.54,0,0,0,2.05-.86,8.35,8.35,0,0,0,1.51-1.16,7.06,7.06,0,0,0,1.08-1.34,9.86,9.86,0,0,0,.69-1.38A8.8,8.8,0,0,0,333,577.61Zm-3.94,9.1-1,.09c-.32.05-.65.11-1,.19.15,2.32.22,3.48.37,5.79.32.05.65.08,1,.1a9.19,9.19,0,0,0,1.05,0,6.46,6.46,0,0,0,1.47-.25,3.44,3.44,0,0,0,1.23-.64,2.84,2.84,0,0,0,.82-1.12,3.6,3.6,0,0,0,.23-1.69,2.57,2.57,0,0,0-.58-1.33,3.23,3.23,0,0,0-1.26-.87,4.83,4.83,0,0,0-1-.24A7.25,7.25,0,0,0,329,586.71Z"/><path class="cls-3" d="M350.58,570.26c0,.88.05,1.33.08,2.21-3.67.13-5.5.2-9.17.37.19,3.94.28,5.92.46,9.86,2.86-.13,4.29-.19,7.16-.3,0,1,.05,1.43.09,2.39-2.9.11-4.35.17-7.24.3.1,2.34.16,3.51.27,5.85,3.47-.16,5.21-.23,8.69-.35l.09,2.55c-4.58.16-6.86.26-11.44.48-.45-9.14-.67-13.71-1.12-22.85C343.3,570.53,345.73,570.43,350.58,570.26Z"/><path class="cls-3" d="M364.11,592.74c-4.12.23-6.17.35-10.29.63,0-1.3,0-2.59-.07-3.88s-.07-2.59-.11-3.9q-.13-3.93-.33-7.8c-.13-2.57-.29-5.17-.46-7.79l4-.28c-.06,2-.12,3.88-.16,5.65s-.08,3.49-.1,5.16-.05,3.31-.05,4.93,0,3.28,0,5c.57,0,1.14,0,1.72,0s1.16,0,1.73,0c1.34,0,2.7-.1,4.07-.19Z"/><path class="cls-3" d="M375.74,593c-.33-1.74-.5-2.6-.83-4.33l-1.56,0h-1.56l-1.68,0-1.7.07c-.14.74-.26,1.46-.37,2.17s-.23,1.43-.34,2.14l-3,.09q.66-2.88,1.24-5.8c.39-2,.76-3.9,1.13-5.86l1.08-5.87c.36-2,.72-3.89,1.1-5.82l4.32-.13q1.26,5.83,2.6,11.71T379,593Zm-4.22-20.36q-.76,3.42-1.43,6.87c-.45,2.29-.88,4.6-1.29,6.91.48,0,1,0,1.43,0s.95,0,1.44,0h1.38l1.36,0c-.45-2.31-.92-4.61-1.39-6.89S372.05,574.89,371.52,572.62Z"/><path class="cls-3" d="M393.34,582.65a27.75,27.75,0,0,1-.84,4.73,10.51,10.51,0,0,1-1.5,3.28,5.73,5.73,0,0,1-2.26,1.91,7.2,7.2,0,0,1-3.13.61,5.82,5.82,0,0,1-2.65-.57,4.9,4.9,0,0,1-1.85-1.66A8.37,8.37,0,0,1,380,588.3a19.73,19.73,0,0,1-.51-3.59l3.54-.13a24.65,24.65,0,0,0,.17,3.14,7.41,7.41,0,0,0,.5,2,2.46,2.46,0,0,0,.87,1.11,2.39,2.39,0,0,0,1.28.33,2.47,2.47,0,0,0,1.71-.63,4.88,4.88,0,0,0,1.25-2.09,18.2,18.2,0,0,0,.79-3.76,54.41,54.41,0,0,0,.31-5.68c0-.61,0-1.29,0-2s0-1.5-.06-2.3-.08-1.62-.15-2.45-.16-1.66-.26-2.46l3.8-.39c.14,1.82.24,3.48.28,5s.06,2.85,0,4c0,.68,0,1.28-.05,1.8s-.05,1-.07,1.34S393.36,582.32,393.34,582.65Z"/><path class="cls-3" d="M405.76,593.32c-.27-1.74-.4-2.62-.67-4.36l-1.56-.09-1.55,0c-.56,0-1.12,0-1.69,0h-1.7q-.24,1.1-.45,2.16c-.14.71-.27,1.42-.41,2.13l-3,0c.5-1.9,1-3.82,1.44-5.75s.9-3.87,1.33-5.82.87-3.88,1.3-5.83.86-3.86,1.3-5.77l4.32,0q1,5.87,2.19,11.79T409,593.42Zm-3.49-20.49q-.88,3.39-1.67,6.81c-.53,2.28-1,4.56-1.54,6.86.48,0,1,0,1.43,0s.95,0,1.44,0l1.38,0c.45,0,.9,0,1.36,0q-.56-3.5-1.15-6.94T402.27,572.83Z"/><path class="cls-3" d="M418.51,593.75c-1-3.18-1.46-4.77-2.44-8a14.46,14.46,0,0,1-1.6,0h-.4a3.05,3.05,0,0,1-.41-.05q-.17,1.92-.3,3.81c-.08,1.27-.17,2.54-.25,3.82l-2.44-.09q.21-3.36.41-6.69c.12-2.22.23-4.47.31-6.73.05-1.64.09-3.26.12-4.87s0-3.24,0-4.88a10.7,10.7,0,0,1,1.71-.43c.6-.1,1.17-.18,1.73-.22s1.07-.06,1.54-.06l1.14,0a10.5,10.5,0,0,1,3,.56,6.43,6.43,0,0,1,2.44,1.49,6.77,6.77,0,0,1,1.57,2.59,9.6,9.6,0,0,1,.43,3.8,7.07,7.07,0,0,1-.79,2.69,8,8,0,0,1-1.58,2.14,9.86,9.86,0,0,1-2.13,1.59,11.78,11.78,0,0,1-2.43,1c.55,1.4,1.14,2.78,1.78,4.15s1.32,2.74,2,4.12Zm-3.45-22.12q-.37,3.09-.68,6.16t-.58,6.12h0a8.53,8.53,0,0,0,3.09-.36,7,7,0,0,0,2.15-1.12,5.73,5.73,0,0,0,1.37-1.52,8.54,8.54,0,0,0,.76-1.56,6.74,6.74,0,0,0,.33-1.23c.05-.33.07-.51.07-.53s0-.34,0-.68a6.73,6.73,0,0,0-.13-1.16,8.4,8.4,0,0,0-.39-1.39,4.5,4.5,0,0,0-.8-1.34,4.39,4.39,0,0,0-1.34-1,4.66,4.66,0,0,0-2-.48A10.33,10.33,0,0,0,415.06,571.63Z"/><path class="cls-1" d="M440.1,583.67a2.22,2.22,0,0,1-.27,1,2.63,2.63,0,0,1-.59.77,2.66,2.66,0,0,1-.85.49,2.48,2.48,0,0,1-1,.14,2.6,2.6,0,0,1-1.76-.87,3,3,0,0,1-.5-.84,2.15,2.15,0,0,1-.14-1,2.36,2.36,0,0,1,.26-.94,2.74,2.74,0,0,1,.61-.78,2.56,2.56,0,0,1,.85-.49,2.45,2.45,0,0,1,1-.14,2.35,2.35,0,0,1,1,.27,2.81,2.81,0,0,1,.77.6,2.66,2.66,0,0,1,.49.85A2.45,2.45,0,0,1,440.1,583.67Z"/><path class="cls-2" d="M464.94,580.92a6.49,6.49,0,0,1-1,2.45,8.41,8.41,0,0,1-.77,1,9,9,0,0,1-1.08,1,10.8,10.8,0,0,1-1.43,1,12,12,0,0,1-1.83.81,6.31,6.31,0,0,1,1.83.65,4.94,4.94,0,0,1,1.2,1,4.19,4.19,0,0,1,1,2,4.06,4.06,0,0,1,.09.78c0,.21,0,.34,0,.39a4,4,0,0,1-.54,1.71,4.89,4.89,0,0,1-1.1,1.21,5.54,5.54,0,0,1-1.43.8,9.22,9.22,0,0,1-1.54.45,10.18,10.18,0,0,1-1.46.2,8.5,8.5,0,0,1-1.15,0l-.5-.06q-.39,0-1-.18c-.41-.08-.91-.19-1.47-.33s-1.19-.32-1.87-.54l1.85-22.45a7.55,7.55,0,0,1,1.49-.34c.52-.07,1-.11,1.54-.13s1,0,1.4,0,.79,0,1.07.07a9.67,9.67,0,0,1,2.84.67,6.21,6.21,0,0,1,2.26,1.55,6.36,6.36,0,0,1,1.37,2.56A8.68,8.68,0,0,1,464.94,580.92Zm-3.17-.87a6.21,6.21,0,0,0-.33-2.67,7.17,7.17,0,0,0-.49-1,3.71,3.71,0,0,0-.78-.92,4.48,4.48,0,0,0-1.15-.71,5.11,5.11,0,0,0-1.57-.36,6.85,6.85,0,0,0-.79,0,7,7,0,0,0-.89,0c-.44,5.13-.66,7.7-1.11,12.83a8.66,8.66,0,0,0,2.15-.55,8.41,8.41,0,0,0,1.68-.93,6.62,6.62,0,0,0,1.25-1.16,7.48,7.48,0,0,0,.89-1.26A8.52,8.52,0,0,0,461.77,580.05Zm-5.25,8.4c-.3,0-.62,0-.94,0l-1,0-.5,5.78a8.76,8.76,0,0,0,1,.25,7.12,7.12,0,0,0,1,.16,7.38,7.38,0,0,0,1.49,0,3.57,3.57,0,0,0,1.31-.45,2.74,2.74,0,0,0,1-1,3.48,3.48,0,0,0,.48-1.64,2.4,2.4,0,0,0-.38-1.39,2.83,2.83,0,0,0-1.11-1,4.54,4.54,0,0,0-1-.4A6.78,6.78,0,0,0,456.52,588.45Z"/><path class="cls-2" d="M480.28,575.39l-.25,2.2c-3.65-.42-5.47-.61-9.12-1-.41,3.92-.61,5.88-1,9.81,2.85.29,4.28.45,7.13.77-.11,1-.16,1.43-.27,2.38-2.88-.33-4.32-.48-7.21-.78l-.6,5.82c3.46.36,5.19.55,8.65.94-.11,1-.17,1.53-.29,2.54-4.55-.52-6.83-.76-11.39-1.22.92-9.11,1.38-13.66,2.29-22.77C473,574.58,475.46,574.84,480.28,575.39Z"/><path class="cls-2" d="M487.65,599.66c-.71-3.26-1.07-4.88-1.79-8.13-.56,0-1.09,0-1.6-.1l-.39,0a2.12,2.12,0,0,1-.41-.08c-.22,1.27-.42,2.53-.61,3.78s-.38,2.51-.56,3.78l-2.43-.29q.48-3.33.95-6.63c.31-2.21.6-4.43.86-6.68.19-1.63.37-3.25.52-4.85s.3-3.22.44-4.86a10.53,10.53,0,0,1,1.74-.29,17.33,17.33,0,0,1,1.74-.07c.56,0,1.07,0,1.54.06l1.13.12a10.6,10.6,0,0,1,3,.8,6.18,6.18,0,0,1,2.3,1.69,6.6,6.6,0,0,1,1.36,2.71,9.4,9.4,0,0,1,.12,3.82,7.29,7.29,0,0,1-1,2.62,8.63,8.63,0,0,1-1.76,2,9.68,9.68,0,0,1-2.25,1.41,13,13,0,0,1-2.51.84c.43,1.43.9,2.86,1.43,4.27s1.09,2.84,1.7,4.28ZM486,577.32c-.42,2-.81,4.06-1.18,6.08l-1.08,6.06h0a8.78,8.78,0,0,0,3.12-.11,7.1,7.1,0,0,0,2.23-.94,5.9,5.9,0,0,0,1.49-1.4,9,9,0,0,0,.89-1.49,7.83,7.83,0,0,0,.43-1.2c.07-.33.11-.5.12-.53s0-.34.05-.67a7.93,7.93,0,0,0,0-1.17,8.89,8.89,0,0,0-.28-1.42,4.93,4.93,0,0,0-.69-1.4,4.32,4.32,0,0,0-1.25-1.14,4.82,4.82,0,0,0-2-.64A10.34,10.34,0,0,0,486,577.32Z"/><path class="cls-2" d="M509.09,579.07c-.23.89-.34,1.33-.56,2.21l-5.2-.76c-1.17,8.2-1.75,12.3-2.92,20.49l-2.15-.3c1.15-8.2,1.72-12.3,2.86-20.5l-4.06-.56c.13-.92.19-1.38.31-2.3C502.06,578,504.41,578.35,509.09,579.07Z"/><path class="cls-2" d="M521.72,594a27.47,27.47,0,0,1-1.49,4.54,10.65,10.65,0,0,1-1.9,3,5.57,5.57,0,0,1-2.43,1.57,6.71,6.71,0,0,1-3.06.15,4.84,4.84,0,0,1-4.24-3.64,11.9,11.9,0,0,1-.4-3.61,32.14,32.14,0,0,1,.43-4.69c.21-1.29.51-2.65.86-4,.14-.59.31-1.22.49-1.88s.39-1.34.61-2,.47-1.4.73-2.1.55-1.4.86-2.07l3.32,1c-.71,1.88-1.29,3.57-1.75,5s-.82,2.79-1.09,3.92-.49,2.1-.63,2.9-.25,1.47-.33,2a31.76,31.76,0,0,0-.36,3.28,7.8,7.8,0,0,0,.15,2.17,2.38,2.38,0,0,0,.68,1.25,2.3,2.3,0,0,0,1.19.54,2.69,2.69,0,0,0,1.49-.22,3.8,3.8,0,0,0,1.4-1.19,9.12,9.12,0,0,0,1.21-2.31,19.36,19.36,0,0,0,.89-3.59c.15-.93.32-1.93.5-3s.36-2.19.53-3.34.3-2.31.41-3.49a32,32,0,0,0,.16-3.5l3.67.18c-.14,1.77-.3,3.38-.48,4.85s-.37,2.76-.56,3.89c-.11.7-.22,1.32-.32,1.86s-.19,1-.28,1.35S521.8,593.61,521.72,594Z"/><path class="cls-2" d="M532.42,606.59c0-1.76,0-2.64,0-4.41l-1.53-.32-1.53-.29-1.67-.28-1.69-.24c-.27.7-.52,1.39-.77,2.07l-.72,2-3-.48q1.18-2.71,2.29-5.47t2.2-5.55q1.08-2.77,2.15-5.57t2.17-5.51l4.28.67q.15,6,.4,12t.69,12ZM532,585.81q-1.38,3.21-2.68,6.48c-.86,2.17-1.71,4.36-2.55,6.55.47.11.94.19,1.41.27s.94.14,1.43.23l1.36.26c.44.09.89.16,1.35.22,0-2.35-.06-4.7-.1-7S532.13,588.13,532,585.81Z"/><path class="cls-2" d="M547.7,609.11c-4.09-.67-6.13-1-10.22-1.62.26-1.26.51-2.53.76-3.8s.5-2.55.74-3.83q.72-3.86,1.37-7.68t1.23-7.71l4,.6q-.75,2.89-1.39,5.48c-.43,1.72-.83,3.39-1.22,5s-.75,3.22-1.11,4.81-.72,3.2-1.08,4.85c.55.14,1.11.27,1.68.38l1.7.34c1.32.26,2.67.49,4,.7C548,607.63,547.89,608.13,547.7,609.11Z"/><path class="cls-2" d="M559,611.87c.05-1.76.08-2.64.13-4.41l-1.52-.37-1.53-.34-1.66-.33-1.69-.3-.83,2-.79,2-3-.58c.84-1.77,1.67-3.57,2.47-5.39s1.59-3.64,2.37-5.47l2.34-5.5c.77-1.83,1.55-3.65,2.34-5.44l4.26.81q0,6,0,12t.31,12Zm.27-20.79q-1.48,3.18-2.89,6.39t-2.76,6.47c.47.12.94.23,1.4.31l1.43.28,1.35.3c.44.11.89.2,1.34.27q.09-3.54.13-7C559.33,595.74,559.34,593.41,559.31,591.08Z"/><path class="cls-2" d="M582.44,593.28q-2,5.46-3.69,11t-3.14,11.17l-2.54-.6c-.93-6.84-1.42-10.26-2.45-17.1q-2.14,7.74-4,15.57l-2.58-.54c.27-1.11.53-2.23.78-3.34s.49-2.24.74-3.38q1.74-7.83,3.22-15.7l3.65.88c.81,7.31,1.19,11,1.91,18.27.24-.83.49-1.74.76-2.74s.54-2,.82-3.12.56-2.2.84-3.34.56-2.26.82-3.38c.18-.78.36-1.56.52-2.32s.33-1.51.48-2.24C580.15,592.7,580.91,592.89,582.44,593.28Z"/><path class="cls-2" d="M594.26,604.14a10.86,10.86,0,0,0,.36-2.52,6.33,6.33,0,0,0-.23-1.81,3.7,3.7,0,0,0-.6-1.21,4.13,4.13,0,0,0-.71-.73,3,3,0,0,0-.88-.44,3.48,3.48,0,0,0-2.16.09,5,5,0,0,0-2,1.42,11,11,0,0,0-1.72,2.77,23.09,23.09,0,0,0-1.39,4.15,26.2,26.2,0,0,0-.73,4.36,13.29,13.29,0,0,0,.12,3.3,5,5,0,0,0,.92,2.2,3.05,3.05,0,0,0,1.67,1.08l.31,0a2.12,2.12,0,0,0,.69,0,3.66,3.66,0,0,0,1-.35,4.32,4.32,0,0,0,1.1-.88,8.07,8.07,0,0,0,1.13-1.63,13.89,13.89,0,0,0,1-2.58c-.84-.14-1.67-.26-2.49-.34s-1.65-.14-2.48-.16c.25-1,.37-1.52.63-2.54q2.19.64,4.38,1.2l1.54.39c.51.13,1,.26,1.54.37a19,19,0,0,1-1.12,3.24,12.92,12.92,0,0,1-1.33,2.31,7.67,7.67,0,0,1-1.43,1.54,6.8,6.8,0,0,1-1.43.91,5.39,5.39,0,0,1-1.3.44,8,8,0,0,1-1.09.12,5.26,5.26,0,0,1-.76,0l-.31-.06a7.06,7.06,0,0,1-3-1.55,6.71,6.71,0,0,1-1.85-2.8,11.53,11.53,0,0,1-.6-4,23.52,23.52,0,0,1,.71-5.16,25.74,25.74,0,0,1,1.79-5.24,10.72,10.72,0,0,1,2.44-3.38,6.53,6.53,0,0,1,3.15-1.57,9.08,9.08,0,0,1,3.9.21l.51.17a4.91,4.91,0,0,1,1.08.54,6.85,6.85,0,0,1,1.25,1.06,5.29,5.29,0,0,1,1.06,1.72,8,8,0,0,1,.5,2.51,11.63,11.63,0,0,1-.44,3.45Z"/><path class="cls-1" d="M211.52,331.82,197.71,304.7q-5.21,1.32-10.26,2.71t-10.2,2.93q-5.46,1.64-11,3.4t-11,3.65q.78,7.69,1.66,15.12t1.81,14.85l-19.95,6.19q-1-20.34-2.59-40.85t-3.56-41q-1.93-20.52-4-41T124.74,190l27.46-8.78q19.25,36.34,39.39,72.76T233,325.39ZM145,204.67q1.6,24.12,3.8,48.24t4.64,48.34q4.77-1.2,9.34-2.67t9.39-2.92q4.6-1.38,9-2.58t8.86-2.76q-11.16-21.74-22.32-43.12T145,204.67Z"/><path class="cls-3" d="M300.08,306.55,272.31,256.3a92.78,92.78,0,0,1-10.57,2.47l-2.64.45a17.91,17.91,0,0,1-2.8.24q1.56,13.23,3.37,26.23t3.69,26.17l-16.52,2.8q-3.21-23-6.57-45.86t-7.27-46q-2.83-16.74-6-33.16t-6.5-33.06a72.11,72.11,0,0,1,10.56-5.24q5.63-2.25,11-3.84T252,145q4.59-.95,7.46-1.43a68.88,68.88,0,0,1,20.37-.51,42.33,42.33,0,0,1,18.06,6.63A46.39,46.39,0,0,1,312,164.89q5.91,9.83,8.48,25a53.1,53.1,0,0,1-1.15,19.29A57.07,57.07,0,0,1,312,226a67.24,67.24,0,0,1-11.76,13.83,82,82,0,0,1-14.6,10.52q8.43,13,17.79,25.42t19.73,24.87ZM245.57,161.91q1.92,21.43,4.26,42.56t4.77,42.25l.22,0q12.12-2,20-6.78a46.49,46.49,0,0,0,12.59-10.63,39.55,39.55,0,0,0,6.83-12.2A59.19,59.19,0,0,0,297,205.45a48.6,48.6,0,0,0,.38-8.79c-.17-2.32-.26-3.55-.29-3.69-.13-.81-.47-2.34-1-4.59a52.29,52.29,0,0,0-2.55-7.67,54.84,54.84,0,0,0-4.6-8.8,31.8,31.8,0,0,0-7.17-7.9,29.56,29.56,0,0,0-10.27-5.12,31.42,31.42,0,0,0-13.89-.37A64.57,64.57,0,0,0,245.57,161.91Z"/><path class="cls-1" d="M539,147.62q-7.25,39.48-12.4,78.94T518,306.21L500.25,305,465.9,191.09q-6.39,55.11-10.43,110.48l-18-1q1-11.79,1.81-23.61l1.6-23.85q3.69-55.29,5.72-110.58l24.83,2.11,31.77,122.49q1-8.88,2.09-19.51t2.1-22.19q1.05-11.58,2-23.71t1.78-24q.56-8.35,1-16.45t.72-15.79Z"/><path class="cls-3" d="M603.35,332.78l1.2-30.41q-5.19-1.39-10.28-2.65t-10.33-2.43q-5.57-1.25-11.26-2.41t-11.41-2.21q-3.07,7.09-5.94,14t-5.68,13.84l-20.43-4.35q9.12-18.23,17.71-36.9t16.94-37.54q8.34-18.84,16.58-37.72T597,166.61l28.25,5.75q-1,41.12-1.2,82.73t1.25,82.6Zm4.09-143.45q-10.4,21.84-20.27,43.94T567.6,277.72q4.75,1.29,9.46,2.23t9.62,2c3.12.7,6.17,1.42,9.13,2.16s6,1.38,9.07,1.92q.9-24.42,1.6-48.53T607.44,189.33Z"/><path class="cls-3" d="M347.81,399.23a167.29,167.29,0,0,1,.93,23.55,157.72,157.72,0,0,1-2.19,22.09,107.43,107.43,0,0,1-5.23,19.57,71.32,71.32,0,0,1-8.11,15.77,43,43,0,0,1-10.83,11,28.93,28.93,0,0,1-13.44,5,27.59,27.59,0,0,1-14-1.95,38.1,38.1,0,0,1-12.15-8.45,66.16,66.16,0,0,1-10.28-13.83,116.23,116.23,0,0,1-8.26-18.09,172.09,172.09,0,0,1-6.14-21.19,212.35,212.35,0,0,1-3.82-23.23,178.13,178.13,0,0,1-.78-32.9,87.23,87.23,0,0,1,5.77-26.42A45.53,45.53,0,0,1,272.09,332q8.18-6.86,20.29-8.17,12.76-1.4,22.3,3.52a43.66,43.66,0,0,1,16.24,15,86.41,86.41,0,0,1,10.83,24.61A199.29,199.29,0,0,1,347.81,399.23Zm-20.56,3.14a246.59,246.59,0,0,0-4.35-26.95,97.49,97.49,0,0,0-6.8-20.66q-4.08-8.49-9.55-12.84A16.57,16.57,0,0,0,294,338.35a16.06,16.06,0,0,0-11.08,6.15q-4.41,5.43-6.66,14.61a98.22,98.22,0,0,0-2.47,21.67,219.65,219.65,0,0,0,1.4,27.27,257.26,257.26,0,0,0,4.69,28.59,145.25,145.25,0,0,0,7.33,23.87q4.26,10.28,9.62,16.09t11.46,5.15q6.11-.66,10.47-7.55t6.82-17.88a135.78,135.78,0,0,0,2.89-25A207.55,207.55,0,0,0,327.25,402.37Z"/><path class="cls-1" d="M448.11,391.88a72.3,72.3,0,0,0,.79-17.45,43.77,43.77,0,0,0-2.75-12.21,25.83,25.83,0,0,0-4.81-7.89A26.81,26.81,0,0,0,436,349.8a16.36,16.36,0,0,0-4.39-2l-1.91-.45a25,25,0,0,0-14.54,2.07q-6.92,3.19-12.65,11t-10.12,20.18a159.28,159.28,0,0,0-6.94,29.51,177.62,177.62,0,0,0-2.21,30.39,87.42,87.42,0,0,0,3.12,22.61q2.79,9.33,7.93,14.62a21.13,21.13,0,0,0,12.32,6.35,19.06,19.06,0,0,0,10.65-2.47,25.26,25.26,0,0,0,4.59-3.16,30.17,30.17,0,0,0,4.73-5.17,54.47,54.47,0,0,0,4.56-7.51,60.86,60.86,0,0,0,4-10.3l17.48,4a69.58,69.58,0,0,1-5.82,14.1,56.79,56.79,0,0,1-7.23,10.22,42,42,0,0,1-7.92,6.89,45.92,45.92,0,0,1-7.92,4.24,41.75,41.75,0,0,1-18.94,2.83A49.93,49.93,0,0,1,382.52,489a46.34,46.34,0,0,1-14.69-18.12q-5.37-11.36-6.67-27.25t1.7-36q6.24-41.86,23.68-61.13t47.16-14.82c.22,0,1,.18,2.25.44a32.57,32.57,0,0,1,4.8,1.51,55.4,55.4,0,0,1,6.44,3.05,35.45,35.45,0,0,1,7,5.17,44.24,44.24,0,0,1,6.52,7.75,41.4,41.4,0,0,1,5,10.86A61.6,61.6,0,0,1,468.3,375a88.89,88.89,0,0,1-1,18.59Z"/><path class="cls-1" d="M606.21,526.4l-69.77-11.06q2.77-13.13,5.45-26.26t5.25-26.4q5.18-26.65,9.8-53t8.92-53.18l26.53,4q-5.16,20.06-9.58,37.85T574.37,433q-4,16.8-7.77,33.2t-7.55,33.52q5.64,1.44,11.44,2.63t11.61,2.31q13.5,2.63,27.44,4.66Z"/><path class="cls-2" d="M387.21,510.73a26,26,0,0,1-3.66,8,34,34,0,0,1-7.11,7.67A45.09,45.09,0,0,1,365,532.94a44.13,44.13,0,0,1-12.41,3,32.82,32.82,0,0,1-10.5-.72,27,27,0,0,1-8.64-3.7,34.39,34.39,0,0,1-6.9-5.93,43,43,0,0,1-5.3-7.28,57.48,57.48,0,0,1-3.77-7.81,37.13,37.13,0,0,1-1.53-5l15.59-5.75a27.34,27.34,0,0,0,1.59,6.12,39.22,39.22,0,0,0,4.7,8.75,29.92,29.92,0,0,0,6.53,6.77,19.86,19.86,0,0,0,7.73,3.64,14.09,14.09,0,0,0,8.43-.73,18.28,18.28,0,0,0,6.34-4.08,22.64,22.64,0,0,0,4.41-7.59,88,88,0,0,0,2.17-10Z"/><path class="cls-2" d="M420.19,152.46l.42,15.3-61.31,1.69,1.88,68.12,48.47-1.34.45,16.53L361,254.11l1.11,40.43,59.41-1.64.49,17.64-78.4,2.16-4.35-158Z"/><path class="cls-2" d="M237.86,397a50.8,50.8,0,0,1,.36,18.27,58.36,58.36,0,0,1-2,8.66,59.4,59.4,0,0,1-3.93,9.49,66.6,66.6,0,0,1-6.32,9.89,76.85,76.85,0,0,1-9.27,10,41.78,41.78,0,0,1,13.15-.63,33.27,33.27,0,0,1,10,2.83,27.94,27.94,0,0,1,7.2,4.82,32,32,0,0,1,4.69,5.44,29.81,29.81,0,0,1,2.66,4.72q.89,2.07,1,2.49a27.05,27.05,0,0,1,1.18,12.34A31.76,31.76,0,0,1,253,495.91a37.88,37.88,0,0,1-6.87,8.89,65.9,65.9,0,0,1-8.56,7,67,67,0,0,1-8.71,5.08,58.31,58.31,0,0,1-7.26,3c-.5.16-1.61.47-3.34.93s-4,1-6.9,1.52-6.28,1.12-10.24,1.7-8.37,1.05-13.25,1.41L141.19,377a50.52,50.52,0,0,1,8.26-5.94q4.61-2.67,9.16-4.75c3-1.38,5.93-2.57,8.67-3.54s5-1.75,6.77-2.31a64.28,64.28,0,0,1,19.24-3.06,41.1,41.1,0,0,1,18,4,44.09,44.09,0,0,1,15.29,12.71Q233.42,382.8,237.86,397Zm-22,2.8a47.53,47.53,0,0,0-9.16-16.09,44.48,44.48,0,0,0-5.67-5.19,25.12,25.12,0,0,0-7.24-3.87,29.25,29.25,0,0,0-9-1.52,33.68,33.68,0,0,0-10.64,1.71c-1.64.51-3.3,1.12-5,1.8a45,45,0,0,0-5.33,2.62l26.66,84.83a54.48,54.48,0,0,0,20-19.35,47.5,47.5,0,0,0,4.78-10.7,58.59,58.59,0,0,0,2.18-10.4A66.6,66.6,0,0,0,215.91,399.77Zm-10.46,67.34q-3,.93-6,2.19t-6.31,2.86l12,38.26q3.28-.33,6.83-1a56.58,56.58,0,0,0,7-1.72,44.61,44.61,0,0,0,9.31-4.09,23.16,23.16,0,0,0,7.09-6.33,19.56,19.56,0,0,0,3.52-8.89,26.51,26.51,0,0,0-1.33-11.7,18.21,18.21,0,0,0-6.12-7.92,21.52,21.52,0,0,0-4.18-2.31,20.3,20.3,0,0,0-5.59-1.41,32.08,32.08,0,0,0-7.25.05A47.78,47.78,0,0,0,205.45,467.11Z"/><path class="cls-2" d="M515.7,510.57l-48.46-6.81,2.65-17.23q3.51.72,7,1.33t7,1.09q3.67-22.17,7.08-44.36t6.57-44.76l2.49-17.7q1.25-8.85,2.28-17.84H488l1.69-20.07q6.6,1.15,13.24,2.09l13.28,1.87,13,1.83q6.46.9,13,1.6L540,366.08c-2.53-.2-5.05-.39-7.54-.55s-5-.31-7.55-.44q-6.93,31.64-13.31,62.94t-12.31,63.08c3.25.45,6.41.81,9.5,1.05s6.24.41,9.47.49Z"/><path class="cls-1" d="M321.12,418.06l-1.26-4.13c-.21-.63-.38-1.16-.47-1.47h0a29.11,29.11,0,0,0-3.86-7.78l-.14-.19a19.41,19.41,0,0,0-6.8-6.36,15.41,15.41,0,0,0-9.06-1.56,13.84,13.84,0,0,0-8,3.4,18.35,18.35,0,0,0-4.78,7.63,37.44,37.44,0,0,0-1.78,11c0,.69,0,1.4,0,2.16V421l9,2.44c0-.31,0-.68,0-1.23a43,43,0,0,1,.54-8.91,14.69,14.69,0,0,1,2.29-5.88,5.47,5.47,0,0,1,4-2.38,6.24,6.24,0,0,1,4.79,1.43,15.64,15.64,0,0,1,3.91,5.25,42.28,42.28,0,0,1,3.07,8.5Z"/><path class="cls-3" d="M398.1,418.16l1.26-4.13c.21-.63.38-1.16.47-1.47h0a29.11,29.11,0,0,1,3.86-7.78l.14-.19a19.41,19.41,0,0,1,6.8-6.36,15.41,15.41,0,0,1,9.06-1.56,13.84,13.84,0,0,1,8,3.4,18.35,18.35,0,0,1,4.78,7.63,37.77,37.77,0,0,1,1.78,11c0,.69,0,1.4,0,2.16v.19l-9,2.44c0-.31,0-.68,0-1.23a43,43,0,0,0-.54-8.91,14.69,14.69,0,0,0-2.29-5.88,5.47,5.47,0,0,0-4-2.38,6.24,6.24,0,0,0-4.79,1.43,15.64,15.64,0,0,0-3.91,5.25,42.28,42.28,0,0,0-3.07,8.5Z"/><rect class="cls-4" width="750" height="750"/></g></g></svg>